<?xml version="1.0" encoding="utf-8"?>
<!-- Generator: Adobe Illustrator 23.0.1, SVG Export Plug-In . SVG Version: 6.00 Build 0)  -->
<svg version="1.1" xmlns="http://www.w3.org/2000/svg" xmlns:xlink="http://www.w3.org/1999/xlink" x="0px" y="0px"
	 viewBox="0 0 800 800" style="enable-background:new 0 0 800 800;" xml:space="preserve">
<style type="text/css">
	.st0{fill:none;stroke:#CCCCCC;stroke-miterlimit:10;}
	.st1{fill:#8C60DA;}
	.st2{fill:#F2F2F2;}
	.st3{fill:#D686F5;}
	.st4{fill:#FBB03B;}
	.st5{fill:#61CA9D;}
	.st6{fill:url(#SVGID_1_);}
	.st7{fill:url(#SVGID_2_);}
	.st8{opacity:0.3;fill:#D686F5;}
	.st9{fill:#FFFFFF;}
	.st10{fill:#2FACC9;}
	.st11{opacity:0.5;}
	.st12{opacity:0.2;}
	.st13{fill:url(#SVGID_3_);}
	.st14{fill:url(#SVGID_4_);}
	.st15{fill:#2FD5C9;}
	.st16{fill:none;stroke:#000000;stroke-width:2;stroke-linecap:round;stroke-miterlimit:10;}
	.st17{fill:#5C56D8;}
	.st18{fill:#CDCEF5;}
	.st19{fill:#A29BE0;}
	.st20{fill:#9AD388;}
	.st21{fill:#1AA89A;}
	.st22{fill:url(#SVGID_5_);}
	.st23{fill:#3A36BD;}
	.st24{opacity:0.3;fill:#2E3192;}
	.st25{fill:#29ABE2;}
	.st26{fill:#71D7E2;}
	.st27{fill:url(#SVGID_6_);}
	.st28{fill:url(#SVGID_7_);}
	.st29{fill:url(#SVGID_8_);}
	.st30{fill:url(#SVGID_9_);}
	.st31{opacity:0.2;fill:#0000FF;}
	.st32{fill:url(#SVGID_10_);}
	.st33{opacity:0.35;fill:url(#SVGID_11_);}
	.st34{fill:#999999;}
	.st35{opacity:0.3;}
	.st36{fill:url(#SVGID_12_);}
	.st37{fill:#469DD4;}
	.st38{fill:url(#SVGID_13_);}
	.st39{opacity:0.1;}
	.st40{fill:url(#SVGID_14_);}
	.st41{opacity:0.4;}
	.st42{fill:url(#SVGID_15_);}
	.st43{fill:url(#SVGID_16_);}
	.st44{fill:url(#SVGID_17_);}
	.st45{opacity:0.8;}
	.st46{fill:url(#SVGID_18_);}
	.st47{fill:url(#SVGID_19_);}
	.st48{opacity:0.9;}
	.st49{fill:url(#SVGID_20_);}
	.st50{fill:#E6E6E6;}
	.st51{fill:url(#SVGID_21_);}
	.st52{fill:url(#SVGID_22_);}
	.st53{fill:#E36995;}
	.st54{fill:#C988C7;}
	.st55{fill:#BD9CE7;}
	.st56{fill:url(#SVGID_23_);}
	.st57{fill:url(#SVGID_24_);}
	.st58{fill:url(#SVGID_25_);}
	.st59{fill:url(#SVGID_26_);}
	.st60{fill:url(#SVGID_27_);}
	.st61{fill:url(#SVGID_28_);}
	.st62{fill:url(#SVGID_29_);}
	.st63{fill:url(#SVGID_30_);}
	.st64{fill:url(#SVGID_31_);}
	.st65{opacity:0.96;}
	.st66{fill:url(#SVGID_32_);}
	.st67{fill:url(#SVGID_33_);}
	.st68{fill:#666666;}
	.st69{fill:none;stroke:#666666;stroke-width:2;stroke-miterlimit:10;}
	.st70{fill:url(#SVGID_34_);}
	.st71{fill:none;stroke:#E6E6E6;stroke-miterlimit:10;}
</style>
<g id="Layer_6">
</g>
<g id="Layer_2">
</g>
<g id="Layer_5">
	<g class="st11">
		<path class="st17" d="M258.1,349.9c0,0,51.6-121.7-21.8-299.7c0,0-22.1,240.2-109.3,256.1L258.1,349.9z"/>
		<path class="st17" d="M428.6,404.3c0,0,40.2-94.8-17-233.5c0,0-17.2,187.1-85.1,199.5L428.6,404.3z"/>
		<path class="st18" d="M190.4,330c0,0,63.7-199.4,241.2-330c0,0-165.7,287.5-86,375.8L190.4,330z"/>
		<path class="st19" d="M270.1,350.5c0,0,45.3-141.7,171.4-234.5c0,0-117.8,204.4-61.1,267.1L270.1,350.5z"/>
	</g>
	<g class="st11">
		<path class="st17" d="M271.9,558.3c0,0,53.9,77.9,191.5,83.8c0,0-137.8-95.9-113-164.5L271.9,558.3z"/>
		<path class="st17" d="M171.3,664.1c0,0,42,60.7,149.2,65.3c0,0-107.4-74.7-88.1-128.1L171.3,664.1z"/>
		<path class="st18" d="M310.8,515.8c0,0,96.4,112.5,105.9,284.8c0,0-109.9-215.9-195.2-187.3L310.8,515.8z"/>
		<path class="st19" d="M266.8,566.8c0,0,68.5,80,75.3,202.4c0,0-78.1-153.4-138.8-133.1L266.8,566.8z"/>
	</g>
	<g class="st11">
		<path class="st20" d="M371.4,603.7c0,0,57.9,33,100.2,20.2c37.5-11.4,66.7,6.3,72.8,10.4c0.9,0.6,1.9,1.1,2.9,1.5
			c12.8,5.1,47.9,8.5,89.1-0.1c0,0-93.1-35.5-135.4-100.2s-127.4-28.8-127.4-28.8S302.2,545.4,371.4,603.7z"/>
		<path class="st21" d="M384.4,585.7c0,0,40.5,23.3,69.8,14.7c26-7.6,46.4,4.8,50.6,7.7c0.6,0.4,1.3,0.8,2.1,1.1
			c8.9,3.7,58.4,16.7,89.9,17.5c0,0-87-45.7-122.8-87.5c-35.2-41.1-88.7-20.9-88.7-20.9S335.9,544.7,384.4,585.7z"/>
	</g>
	<g class="st11">
		<path class="st20" d="M338.5,605.4c0,0-7.1,50.2-34.4,69.7c-24.3,17.3-27.2,43.1-27.6,48.7c-0.1,0.8-0.2,1.7-0.5,2.5
			c-2.9,10.1-17.2,32.8-41.5,53.7c0,0,21.9-72.6,2.6-128.2s41.9-90.2,41.9-90.2S335.6,536.6,338.5,605.4z"/>
		<path class="st21" d="M321.7,604.8c0,0-4.8,35.2-23.6,48.9c-16.7,12.1-18.7,30.2-18.9,34.1c0,0.6-0.2,1.2-0.3,1.7
			c-1.9,7.1-17.1,42.9-31.3,62.3c0,0,12.9-73.7,4.4-114.6c-8.4-40.4,28.6-63.2,28.6-63.2S319.5,556.6,321.7,604.8z"/>
	</g>
	<g class="st11">
		<path class="st20" d="M515,529.7c0,0,73-25.4,94.1-72c18.7-41.4,56.5-53.4,64.7-55.6c1.2-0.3,2.4-0.8,3.6-1.4
			c14.2-7.2,44-35.3,68-77.8c0,0-102.1,54.1-190.8,41.6c-88.7-12.5-122.4,89.1-122.4,89.1S411.4,545.6,515,529.7z"/>
		<path class="st21" d="M509.3,504.7c0,0,51.3-17.5,66.1-49.6c13.2-28.5,39.7-36.8,45.4-38.3c0.9-0.2,1.7-0.6,2.5-1
			c10-5,59.2-38.2,84-65.1c0,0-106.3,41-170.1,40.3c-62.8-0.7-86,61.4-86,61.4S436.5,515.7,509.3,504.7z"/>
	</g>
	<g class="st65">
		
			<linearGradient id="SVGID_1_" gradientUnits="userSpaceOnUse" x1="2871.6526" y1="-299.8735" x2="3101.9424" y2="-299.8735" gradientTransform="matrix(0.9906 0.1366 -0.1366 0.9906 -2753.1741 201.1357)">
			<stop  offset="0" style="stop-color:#D981AF"/>
			<stop  offset="0.9979" style="stop-color:#A49FC6"/>
		</linearGradient>
		<path class="st6" d="M223.8,407.7c0,0,101,8.1,131.7-62.4c0,0,19.4-48.4-4.5-89.8s-70.7-51.4-164.6-3.2S119.2,391.8,223.8,407.7z"
			/>
		<g>
			<path class="st23" d="M186.6,395.2c2.3-2.1,4.8-4.4,7.1-6.6c2.4-2.3,4.7-4.6,7-6.9c4.6-4.7,9.1-9.5,13.5-14.4
				c8.8-9.8,17.1-20.1,24.8-30.8c3.9-5.3,7.6-10.8,11.1-16.4c3.6-5.6,6.9-11.3,10-17.1c3.2-5.8,6-11.8,8.7-17.9
				c2.7-6.1,4.9-12.3,7-18.6c-1.6,6.4-3.5,12.9-5.8,19.1c-2.3,6.3-4.7,12.5-7.5,18.6c-2.8,6.1-5.7,12.1-8.9,18
				c-3.2,5.9-6.5,11.7-10.1,17.4c-7.1,11.4-14.8,22.4-23,33c-4.1,5.3-8.4,10.5-12.7,15.7c-2.2,2.6-4.4,5.1-6.7,7.6
				c-2.3,2.5-4.5,5-7,7.5L186.6,395.2z"/>
		</g>
		<g>
			<polygon class="st23" points="247.8,324.3 309.4,309.6 249.2,329.1 			"/>
		</g>
		<g>
			<path class="st23" d="M214.6,370.5c12.4-0.3,24.9-0.8,37.3-1.4c6.2-0.3,12.4-0.7,18.6-1.2c1.6-0.1,3.1-0.3,4.6-0.4
				c1.6-0.1,3.1-0.3,4.6-0.5l2.3-0.3l2.3-0.4c1.5-0.2,3-0.6,4.6-0.9c-1.5,0.4-3,0.9-4.5,1.2l-2.3,0.5l-2.3,0.4
				c-1.5,0.3-3.1,0.6-4.6,0.8c-1.5,0.2-3.1,0.5-4.6,0.7c-6.2,0.9-12.4,1.7-18.5,2.5c-12.4,1.5-24.8,2.8-37.2,3.9L214.6,370.5z"/>
		</g>
		<g>
			<polygon class="st23" points="262.4,298.5 249.6,272 265.9,296.5 			"/>
		</g>
		<g>
			<path class="st23" d="M223.4,361.5c-3.5-5-6.8-10.1-10.1-15.2c-3.3-5.1-6.5-10.2-9.7-15.4c-3.1-5.2-6.2-10.5-9-15.9
				c-1.4-2.7-2.7-5.4-3.9-8.2c-1.2-2.8-2.3-5.7-2.8-8.6c0.7,2.9,2,5.7,3.3,8.4c1.3,2.7,2.8,5.3,4.3,8c3.1,5.2,6.4,10.3,9.8,15.3
				c3.4,5,6.9,9.9,10.5,14.8c3.6,4.9,7.2,9.7,10.9,14.5L223.4,361.5z"/>
		</g>
	</g>
	<g class="st48">
		<g>
			<linearGradient id="SVGID_2_" gradientUnits="userSpaceOnUse" x1="600.7014" y1="230.8486" x2="100.7014" y2="733.2877">
				<stop  offset="0" style="stop-color:#CCE0F4"/>
				<stop  offset="6.405089e-02" style="stop-color:#C3DCF2"/>
				<stop  offset="0.1706" style="stop-color:#A9D2EE"/>
				<stop  offset="0.3066" style="stop-color:#80C2E7"/>
				<stop  offset="0.4649" style="stop-color:#47ACDE"/>
				<stop  offset="0.5674" style="stop-color:#1E9CD7"/>
				<stop  offset="0.8652" style="stop-color:#0075BE"/>
				<stop  offset="0.9944" style="stop-color:#005B97"/>
			</linearGradient>
			<path class="st7" d="M161.2,649.6c13-7.4,26.7-13.5,41.2-17.3c21.4-5.6,43.7-6,65.8-6.4c23.4-0.4,48.2-0.4,68.4,11.4
				c8.4,4.9,18.2,12.1,26.9,7.6c2.3-1.2,4.1-3.1,5.9-5c11.7-12.4,22.7-25.4,33.2-38.8c10-12.9,19.9-26.7,34.3-34.2
				c16.8-8.7,36.8-7.5,55.6-5.6c10.5,1.1,21.3,2.3,31.6-0.1c10.3-2.4,20.3-9.1,23.4-19.2c2.7-8.8-0.1-18.2-2.9-27
				c-5.7-17.9-11.5-35.7-17.2-53.6c-3.9-12.1-7.8-24.8-5.7-37.3c3.5-21.2,23-35.8,41.8-46.3c18.8-10.5,39.7-20.1,50.8-38.6
				c2.1-3.6,3.9-7.6,3.9-11.7c0-7,0.6-12.3-0.2-19.3c-3.3-30.9-26.2-40.3-47.8-44.5c-11.7-2.3-15.4-2.5-25.4-3.1
				c-8.8-0.5-17.6-0.4-26.3,1.1c-23.2,4.1-46.5,8.1-69.7,12.2c-5.7,1-11.6,2-17.4,1c-9.8-1.7-17.5-8.9-26.1-13.8
				c-20.3-11.7-47.4-10.5-66.6,3c-21.4,15-30.9,41.4-42.5,64.8s-29.9,47.7-55.9,49.9c-9.3,0.8-18.9-1.4-27.9,1.2
				c-8.4,2.4-22.1,2.5-28.4,8.5c-11.3,10.9-16.2,30.2-15.3,45.9c0.6,11.6,8.2,21.4,12.7,32.1c7.5,17.7,6.3,38.8-3.2,55.5
				c-7,12.5-22.6,21.4-26.1,35.2c-1.5,5.8-6.2,19.2-6.1,25.2c0,23.1,8.9,40.2,8.9,63.3"/>
		</g>
		<g>
			<path class="st50" d="M598.5,306.2c-5.4,2-10.8,4.1-16.2,6.3c-5.4,2.2-10.7,4.4-16,6.7c-10.6,4.7-21.2,9.3-31.6,14.4
				c-5.2,2.4-10.4,5-15.6,7.5c-5.2,2.6-10.3,5.2-15.4,7.9l-7.7,4c-2.6,1.3-5.1,2.6-7.7,4c-5.1,2.8-10.2,5.5-15.2,8.3
				c-40.3,22.4-79,47.7-115.9,75.3c-9.1,7-18.3,13.9-27.2,21.3c-9.1,7.1-17.7,14.8-26.5,22.2l-12.9,11.5c-2.1,1.9-4.3,3.8-6.4,5.8
				l-6.2,6c-4.1,4-8.4,7.9-12.5,12l-12.2,12.2c-4.1,4-8,8.3-11.9,12.5l-5.9,6.3c-2,2.1-4,4.2-5.9,6.4c-7.6,8.7-15.4,17.2-22.6,26.2
				c-15,17.6-28.6,36.3-42.3,55c11.7-20,24.2-39.7,38.1-58.4c6.8-9.5,14.2-18.5,21.4-27.6c1.8-2.3,3.7-4.5,5.6-6.7l5.7-6.6
				c3.8-4.4,7.6-8.9,11.6-13.1l11.9-12.8l1.5-1.6l1.5-1.5l3.1-3.1l6.2-6.2l6.2-6.2c2.1-2,4.2-4,6.4-6l12.8-12
				c8.8-7.7,17.5-15.5,26.5-22.8c8.9-7.5,18.2-14.5,27.5-21.7c37.4-27.9,77-52.8,118.5-74c5.2-2.7,10.4-5.2,15.6-7.8
				c5.2-2.6,10.5-5,15.8-7.5c5.3-2.4,10.6-4.8,15.9-7.1l8-3.4c2.7-1.1,5.3-2.3,8.1-3.3l8.1-3.2l8.1-3.1c2.7-1.1,5.4-2,8.2-3
				c2.7-1,5.5-2,8.2-2.9C576.2,312.7,587.3,309.1,598.5,306.2z"/>
		</g>
		<g>
			<path class="st50" d="M384,409.3c0.2-0.5,0.5-1.2,0.7-1.9l0.7-2c0.5-1.4,0.9-2.8,1.4-4.2c0.9-2.8,1.7-5.6,2.4-8.5
				c1.4-5.7,2.5-11.5,3.3-17.4c0.8-5.9,1.2-11.8,1.2-17.7c0-1.5,0-3,0-4.5l-0.2-4.5l-0.3-4.4c-0.1-1.5-0.3-2.9-0.5-4.4
				c-1.5-11.8-4.8-23.4-10-34.2c-0.3-0.7-0.6-1.4-1-2l-1.1-2c-0.7-1.3-1.4-2.7-2.2-4c-1.6-2.5-3.1-5.2-4.9-7.6
				c-3.4-5-7.5-9.5-11.6-14c4.5,4.1,8.9,8.3,12.7,13.1c2,2.3,3.8,4.8,5.6,7.3c0.9,1.2,1.7,2.6,2.5,3.9l1.2,1.9
				c0.4,0.7,0.8,1.3,1.1,2c6.2,10.7,10.5,22.4,13,34.6c0.3,1.5,0.7,3,0.9,4.6l0.7,4.6l0.5,4.6c0.2,1.5,0.2,3.1,0.4,4.7
				c0.4,6.2,0.4,12.5,0.1,18.7c-0.3,6.2-1,12.4-2.1,18.6c-0.5,3.1-1.1,6.2-1.8,9.2c-0.4,1.5-0.7,3.1-1.1,4.6l-0.6,2.3
				c-0.2,0.8-0.4,1.5-0.7,2.4L384,409.3z"/>
		</g>
		<g>
			<path class="st50" d="M522.9,533c-3-6.9-6.3-13.5-9.9-20.1c-3.5-6.6-7.3-13-11.2-19.3c-7.9-12.6-16.5-24.8-26-36.2
				c-4.7-5.7-9.7-11.2-14.8-16.5c-5.1-5.3-10.6-10.3-16.1-15c-5.6-4.8-11.5-9.1-17.5-13.2c-6-4.1-12.4-7.7-18.8-11l5.2-9.7
				c6.6,4,13.1,8.2,19.2,12.9c6.1,4.7,11.9,9.6,17.4,14.9c5.5,5.3,10.8,10.8,15.7,16.5c5,5.7,9.7,11.6,14.1,17.7
				c8.9,12.2,16.9,25,24,38.2c3.6,6.6,6.9,13.3,10.1,20.1C517.4,519.1,520.3,525.9,522.9,533z"/>
		</g>
		<g>
			<path class="st50" d="M280.6,495.3c-0.3-1-0.7-2.3-1.2-3.4c-0.4-1.2-0.9-2.3-1.3-3.5c-0.9-2.3-1.9-4.6-2.9-6.9
				c-2.1-4.6-4.4-9.1-6.8-13.4c-4.9-8.8-10.7-17.1-17.3-24.7c-6.6-7.6-14.2-14.5-22.7-20c-4.2-2.8-8.8-5.2-13.5-7.2l-3.6-1.5
				c-1.2-0.5-2.4-0.8-3.6-1.3l-1.8-0.6c-0.6-0.2-1.2-0.3-1.9-0.5l-3.7-1l3.8,0.7c0.6,0.1,1.3,0.2,1.9,0.3l1.9,0.5
				c1.3,0.3,2.5,0.6,3.8,0.9l3.7,1.2c4.9,1.7,9.8,3.6,14.4,6.1c9.3,4.9,17.7,11.3,25.3,18.6c7.6,7.3,14.4,15.5,20.3,24.2
				c3,4.4,5.8,8.8,8.4,13.4c1.3,2.3,2.6,4.6,3.8,7c0.6,1.2,1.2,2.4,1.8,3.6c0.6,1.2,1.1,2.4,1.7,3.8L280.6,495.3z"/>
		</g>
		<g>
			<path class="st50" d="M266.5,508.4c1.7,0.6,3.2,1.2,4.8,1.8c1.5,0.6,3,1.3,4.6,2c3,1.3,6,2.8,8.9,4.3c5.8,3,11.5,6.3,17,9.8
				c11,7.1,21.2,15.4,30.1,25c8.8,9.7,16.3,20.7,20.9,32.8c2.5,6,4,12.4,5.1,18.7l0.7,4.8l0.3,4.8l0.1,2.4l0,2.4l-0.1,4.8l-0.3-4.8
				l-0.1-2.4l-0.3-2.4l-0.6-4.7l-1-4.7c-1.5-6.2-3.4-12.2-6.3-17.9c-5.4-11.4-13.3-21.4-22.3-30c-9.2-8.5-19.5-15.8-30.5-21.8
				c-5.5-3-11.1-5.7-16.9-8.2c-2.9-1.2-5.8-2.4-8.7-3.4c-1.5-0.5-2.9-1-4.4-1.5c-1.4-0.5-3-1-4.3-1.3L266.5,508.4z"/>
		</g>
	</g>
</g>
<g id="Layer_4">
</g>
<g id="Layer_3">
</g>
</svg>
