<?xml version="1.0" encoding="utf-8"?>
<!-- Generator: Adobe Illustrator 23.0.1, SVG Export Plug-In . SVG Version: 6.00 Build 0)  -->
<svg version="1.1" xmlns="http://www.w3.org/2000/svg" xmlns:xlink="http://www.w3.org/1999/xlink" x="0px" y="0px"
	 viewBox="0 0 800 800" style="enable-background:new 0 0 800 800;" xml:space="preserve">
<style type="text/css">
	.st0{fill:none;stroke:#CCCCCC;stroke-miterlimit:10;}
	.st1{fill:#8C60DA;}
	.st2{fill:#F2F2F2;}
	.st3{fill:#D686F5;}
	.st4{fill:#FBB03B;}
	.st5{fill:#61CA9D;}
	.st6{fill:url(#SVGID_1_);}
	.st7{fill:url(#SVGID_2_);}
	.st8{opacity:0.3;fill:#D686F5;}
	.st9{fill:#FFFFFF;}
	.st10{fill:#2FACC9;}
	.st11{opacity:0.5;}
	.st12{opacity:0.2;}
	.st13{fill:url(#SVGID_3_);}
	.st14{fill:url(#SVGID_4_);}
	.st15{fill:#2FD5C9;}
	.st16{fill:none;stroke:#000000;stroke-width:2;stroke-linecap:round;stroke-miterlimit:10;}
	.st17{fill:#5C56D8;}
	.st18{fill:#CDCEF5;}
	.st19{fill:#A29BE0;}
	.st20{fill:#9AD388;}
	.st21{fill:#1AA89A;}
	.st22{fill:url(#SVGID_5_);}
	.st23{fill:#3A36BD;}
	.st24{opacity:0.3;fill:#2E3192;}
	.st25{fill:#29ABE2;}
	.st26{fill:#71D7E2;}
	.st27{fill:url(#SVGID_6_);}
	.st28{fill:url(#SVGID_7_);}
	.st29{fill:url(#SVGID_8_);}
	.st30{fill:url(#SVGID_9_);}
	.st31{opacity:0.2;fill:#0000FF;}
	.st32{fill:url(#SVGID_10_);}
	.st33{opacity:0.35;fill:url(#SVGID_11_);}
	.st34{fill:#999999;}
	.st35{opacity:0.3;}
	.st36{fill:url(#SVGID_12_);}
	.st37{fill:#469DD4;}
	.st38{fill:url(#SVGID_13_);}
	.st39{opacity:0.1;}
	.st40{fill:url(#SVGID_14_);}
	.st41{opacity:0.4;}
	.st42{fill:url(#SVGID_15_);}
	.st43{fill:url(#SVGID_16_);}
	.st44{fill:url(#SVGID_17_);}
	.st45{opacity:0.8;}
	.st46{fill:url(#SVGID_18_);}
	.st47{fill:url(#SVGID_19_);}
	.st48{opacity:0.9;}
	.st49{fill:url(#SVGID_20_);}
	.st50{fill:#E6E6E6;}
	.st51{fill:url(#SVGID_21_);}
	.st52{fill:url(#SVGID_22_);}
	.st53{fill:#E36995;}
	.st54{fill:#C988C7;}
	.st55{fill:#BD9CE7;}
	.st56{fill:url(#SVGID_23_);}
	.st57{fill:url(#SVGID_24_);}
	.st58{fill:url(#SVGID_25_);}
	.st59{fill:url(#SVGID_26_);}
	.st60{fill:url(#SVGID_27_);}
	.st61{fill:url(#SVGID_28_);}
	.st62{fill:url(#SVGID_29_);}
	.st63{fill:url(#SVGID_30_);}
	.st64{fill:url(#SVGID_31_);}
	.st65{opacity:0.96;}
	.st66{fill:url(#SVGID_32_);}
	.st67{fill:url(#SVGID_33_);}
	.st68{fill:#666666;}
	.st69{fill:none;stroke:#666666;stroke-width:2;stroke-miterlimit:10;}
	.st70{fill:url(#SVGID_34_);}
	.st71{fill:none;stroke:#E6E6E6;stroke-miterlimit:10;}
</style>
<g id="Layer_6">
</g>
<g id="Layer_2">
</g>
<g id="Layer_5">
	<g class="st12">
		
			<image style="overflow:visible;" width="3208" height="1752" xlink:href="5C82F7C92BEB8C56.png"  transform="matrix(0.24 0 0 0.24 58.3008 375.4263)">
		</image>
	</g>
	<g>
		
			<linearGradient id="SVGID_1_" gradientUnits="userSpaceOnUse" x1="766.7668" y1="234.1408" x2="960.7937" y2="234.1408" gradientTransform="matrix(0.9906 0.1366 -0.1366 0.9906 -126.8566 48.1272)">
			<stop  offset="0" style="stop-color:#D981AF"/>
			<stop  offset="0.9979" style="stop-color:#A49FC6"/>
		</linearGradient>
		<path class="st6" d="M677.7,478.6c0,0,85.1,6.8,111-52.6c0,0,16.3-40.8-3.8-75.6c-20.1-34.9-59.6-43.3-138.6-2.7
			S589.5,465.2,677.7,478.6z"/>
		<g>
			<path class="st23" d="M645.7,467.4c2-1.7,4-3.6,6-5.5c2-1.9,4-3.8,5.9-5.8c3.9-3.9,7.7-7.9,11.4-12c7.4-8.2,14.5-16.8,21-25.8
				c3.3-4.5,6.4-9.1,9.4-13.8c3-4.7,5.8-9.5,8.5-14.4c2.7-4.9,5.1-9.9,7.4-15c2.3-5.1,4.2-10.3,6-15.7c-1.3,5.4-2.9,10.9-4.7,16.2
				c-1.9,5.3-3.9,10.6-6.2,15.7c-2.3,5.2-4.8,10.2-7.4,15.2c-2.7,5-5.5,9.9-8.4,14.7c-5.9,9.7-12.4,19-19.3,28
				c-3.4,4.5-7,8.9-10.7,13.3c-1.8,2.2-3.7,4.3-5.6,6.5c-1.9,2.1-3.8,4.2-5.9,6.4L645.7,467.4z"/>
		</g>
		<g>
			<polygon class="st23" points="697.8,407.9 749.7,395.9 699.1,412.7 			"/>
		</g>
		<g>
			<path class="st23" d="M669.9,446.8c10.5-0.2,21-0.5,31.4-1c5.2-0.3,10.5-0.5,15.7-0.9c2.6-0.2,5.2-0.4,7.8-0.7l2-0.2l1.9-0.3
				c1.3-0.2,2.6-0.5,3.9-0.7c-1.3,0.4-2.5,0.8-3.8,1.1l-1.9,0.4l-1.9,0.4c-2.6,0.5-5.2,0.9-7.8,1.3c-5.2,0.8-10.4,1.5-15.6,2.2
				c-10.4,1.3-20.9,2.5-31.4,3.5L669.9,446.8z"/>
		</g>
		<g>
			<polygon class="st23" points="709.9,386.7 699.4,364.3 713.4,384.8 			"/>
		</g>
		<g>
			<path class="st23" d="M677,439.9c-5.8-8.5-11.3-17.1-16.6-25.9c-2.6-4.4-5.1-8.9-7.5-13.4c-1.1-2.3-2.3-4.6-3.3-7
				c-1-2.4-1.8-4.8-2.4-7.3c0.7,2.5,1.7,4.8,2.8,7.1c1.1,2.3,2.4,4.5,3.7,6.7c2.6,4.4,5.4,8.6,8.3,12.8c5.8,8.4,11.8,16.6,18.1,24.6
				L677,439.9z"/>
		</g>
	</g>
	<g>
		<path class="st24" d="M659.8,289.6L415.9,148.7c-4.6-2.6-10.2,0.7-10.2,5.9v251.9c0,2.4,1.3,4.7,3.4,5.9l243.9,140.8
			c4.6,2.6,10.2-0.7,10.2-5.9V295.5C663.2,293,661.9,290.8,659.8,289.6z"/>
		<path class="st25" d="M650.3,295.9L392.7,147.2v267.7l248.2,143.3c4.2,2.4,9.4-0.6,9.4-5.4V295.9z"/>
		<polygon class="st26" points="630.2,336.5 589.5,313 589.5,355.3 630.2,378.8 		"/>
		<polygon class="st26" points="583.5,309.6 542.8,286.1 542.8,328.4 583.5,351.9 		"/>
		<polygon class="st26" points="536.7,283.5 496,260 496,302.3 536.7,325.8 		"/>
		<polygon class="st26" points="490,256.6 449.3,233.1 449.3,275.4 490,298.9 		"/>
		<polygon class="st26" points="443.2,229.7 402.5,206.2 402.5,248.5 443.2,272 		"/>
		<polygon class="st26" points="630.2,389.9 589.5,366.4 589.5,408.7 630.2,432.2 		"/>
		<polygon class="st26" points="583.5,363 542.8,339.5 542.8,381.8 583.5,405.3 		"/>
		<polygon class="st26" points="536.7,336.9 496,313.4 496,355.7 536.7,379.2 		"/>
		<polygon class="st24" points="490,310 449.3,286.5 449.3,328.8 490,352.3 		"/>
		<polygon class="st26" points="443.2,283.1 402.5,259.6 402.5,301.9 443.2,325.4 		"/>
		<polygon class="st26" points="630.2,443.3 589.5,419.8 589.5,462.1 630.2,485.6 		"/>
		<polygon class="st26" points="585.9,416.4 545.2,392.9 545.2,435.2 585.9,458.7 		"/>
		<polygon class="st26" points="539.2,390.3 498.5,366.8 498.5,409.1 539.2,432.6 		"/>
		<polygon class="st26" points="492.4,363.4 451.7,339.9 451.7,382.2 492.4,405.7 		"/>
		<polygon class="st26" points="445.7,336.5 405,313 405,355.3 445.7,378.8 		"/>
		<polygon class="st26" points="632.7,496.7 592,473.2 592,515.5 632.7,539 		"/>
		<polygon class="st26" points="585.9,469.8 545.2,446.3 545.2,488.6 585.9,512.1 		"/>
		<polygon class="st26" points="539.2,443.7 498.5,420.2 498.5,462.5 539.2,486 		"/>
		<polygon class="st26" points="492.4,416.8 451.7,393.3 451.7,435.6 492.4,459.1 		"/>
		<polygon class="st26" points="445.7,389.9 405,366.4 405,408.7 445.7,432.2 		"/>
	</g>
	<g>
		<g>
			<path class="st15" d="M137.4,390.6c-3.8-4.9-8.2-9.5-13.2-13.3c-7.4-5.6-15.9-9.3-24.4-13c-9-3.9-18.6-7.9-28.3-6.5
				c-4.1,0.6-9,1.8-11.6-1.4c-0.7-0.8-1.1-1.9-1.5-2.9c-2.5-6.7-4.7-13.5-6.6-20.3c-1.8-6.6-3.4-13.5-7.8-18.7
				c-5.1-6.1-13-8.8-20.6-11.1c-4.2-1.3-8.6-2.5-12.2-5.1c-3.6-2.6-6.4-6.8-6-11.2c0.4-3.8,3-7,5.5-10c5.1-6,10.2-12,15.2-18
				c3.4-4.1,7-8.3,8.2-13.5c2-8.8-3.2-17.6-8.8-24.6c-5.6-7.1-12.1-14.2-13.5-23.1c-0.3-1.7-0.3-3.6,0.4-5.2
				c1.1-2.7,1.8-4.9,3.1-7.4c6.2-11.4,16.6-11.4,25.6-9.6c4.9,1,6.4,1.5,10.3,2.9c3.5,1.2,6.9,2.7,10,4.7c8.3,5.3,16.7,10.6,25,15.9
				c2.1,1.3,4.2,2.6,6.6,3.2c4.1,0.9,8.2-0.6,12.3-1.2c9.7-1.3,20,3.5,25.3,11.8c5.9,9.2,5.3,21,6.1,31.9
				c0.7,10.9,3.9,23.2,13.7,28.3c3.5,1.8,7.6,2.5,10.6,4.9c2.9,2.3,8.2,4.5,9.6,7.8c2.6,6,1.4,14.3-1.4,20.2
				c-2.1,4.4-6.6,7-10.1,10.4c-5.7,5.6-8.6,14-7.7,22c0.7,5.9,5.3,11.9,4.5,17.8c-0.4,2.5-0.7,8.4-1.7,10.7
				c-3.7,8.9-9.9,14.1-13.6,23.1"/>
		</g>
		<g>
			<path class="st34" d="M23.1,187.7c15,12.3,28.5,26.5,41,41.4c12.5,14.9,23.6,31,33.7,47.6c4.9,8.4,9.5,17,13.8,25.8l3.1,6.6
				c0.5,1.1,1,2.2,1.5,3.3l1.4,3.4c0.9,2.2,1.9,4.5,2.8,6.7l2.6,6.8c6.8,18.2,11.8,37.1,14.9,56.3c-2-9.5-4.1-19-7-28.3
				c-1.3-4.7-2.8-9.3-4.3-13.9c-0.7-2.3-1.6-4.6-2.4-6.8c-0.8-2.3-1.6-4.6-2.6-6.8c-3.5-9-7.5-17.9-11.6-26.6
				c-4.3-8.7-8.9-17.2-13.8-25.5c-9.9-16.7-21-32.6-33.1-47.7c-6.1-7.6-12.4-14.9-19.1-21.9C37.3,201,30.4,194.1,23.1,187.7z"/>
		</g>
		<g>
			<path class="st34" d="M86.3,261.8c0.4-5.2,1.5-10.3,3.1-15.2c1.6-4.9,3.8-9.6,6.6-13.9c2.8-4.3,6.2-8.2,10.2-11.4
				c4-3.2,8.5-5.7,13.3-7.5c-4.7,1.9-9.2,4.5-13,7.8c-3.8,3.3-7.1,7.2-9.7,11.6c-2.6,4.3-4.6,9-6,13.8c-1.4,4.8-2.3,9.9-2.5,14.8
				L86.3,261.8z"/>
		</g>
		<g>
			<path class="st34" d="M16.1,287.6c4.3-4.5,9.1-8.7,14-12.5c4.9-3.9,10.1-7.4,15.5-10.6c5.4-3.2,11.1-5.9,17-8.1l4.5-1.5
				c0.7-0.3,1.5-0.4,2.3-0.6l2.3-0.6l2.3-0.6c0.8-0.2,1.6-0.3,2.3-0.4l4.7-0.8l0.2,2l-4.6,0.6c-0.8,0.1-1.5,0.2-2.3,0.3l-2.3,0.5
				l-2.3,0.5c-0.8,0.2-1.5,0.3-2.3,0.6l-4.4,1.4c-5.8,2.1-11.6,4.5-17,7.6c-5.5,3-10.7,6.4-15.7,10.1
				C25.4,279.2,20.6,283.2,16.1,287.6z"/>
		</g>
		<g>
			<path class="st34" d="M113.5,309.6c3.1-3.2,6.5-5.9,10.1-8.4c3.6-2.5,7.4-4.6,11.4-6.3c4-1.7,8.2-2.9,12.6-3.4
				c4.3-0.5,8.7-0.3,12.9,0.6c-4.2-0.8-8.6-0.8-12.8-0.1c-4.2,0.7-8.3,2-12.2,3.8c-3.9,1.8-7.5,4.1-11,6.6c-3.4,2.5-6.7,5.4-9.5,8.5
				L113.5,309.6z"/>
		</g>
		<g>
			<path class="st34" d="M119,322.4c-5.2-0.4-10.6-0.2-15.8,0.4c-5.3,0.7-10.5,2-15.4,3.9c-4.9,2-9.6,4.7-13.4,8.4
				c-3.9,3.6-6.9,8.2-9,13.1c1.9-5,4.8-9.7,8.6-13.5c3.8-3.8,8.5-6.8,13.4-9c5-2.2,10.2-3.6,15.6-4.5c5.4-0.9,10.7-1.2,16.2-0.9
				L119,322.4z"/>
		</g>
	</g>
	<g>
		<g class="st35">
			
				<linearGradient id="SVGID_2_" gradientUnits="userSpaceOnUse" x1="-1180.0698" y1="85.3315" x2="-1222.1417" y2="292.3058" gradientTransform="matrix(-1 0 0 1 -960.9185 0)">
				<stop  offset="0" style="stop-color:#71D7E2"/>
				<stop  offset="1" style="stop-color:#29ABE2"/>
			</linearGradient>
			<polygon class="st7" points="337.2,429.4 337.2,177.1 170.1,80.6 170.1,332.9 			"/>
			<path class="st9" d="M189.7,205.7c0,0.7,0.4,1.3,1,1.7l125.1,72.2v-5.1c0-0.9-0.5-1.7-1.3-2.2l-124.8-72.1V205.7z"/>
			<path class="st9" d="M198.2,131.5c0,0.7,0.4,1.3,1,1.7l105,60.3v-5.1c0-0.9-0.5-1.7-1.3-2.2l-104.7-60.2V131.5z"/>
			<path class="st9" d="M208.6,151.6c0,0.7,0.4,1.3,1,1.7l80.4,46.3v-5.1c0-0.9-0.5-1.7-1.3-2.2l-80.1-46.2V151.6z"/>
			<path class="st9" d="M189.7,220c0,0.7,0.4,1.3,1,1.7l125.1,72.2v-5.1c0-0.9-0.5-1.7-1.3-2.2l-124.8-72.1V220z"/>
			<path class="st9" d="M189.7,234.2c0,0.7,0.4,1.3,1,1.7l125.1,72.2v-5.1c0-0.9-0.5-1.7-1.3-2.2l-124.8-72.1V234.2z"/>
			<path class="st9" d="M189.7,248.5c0,0.7,0.4,1.3,1,1.7l125.1,72.2v-5.1c0-0.9-0.5-1.7-1.3-2.2l-124.8-72.1V248.5z"/>
			<path class="st9" d="M189.7,262.7c0,0.7,0.4,1.3,1,1.7l125.1,72.2v-5.1c0-0.9-0.5-1.7-1.3-2.2l-124.8-72.1V262.7z"/>
			<path class="st9" d="M189.7,277c0,0.7,0.4,1.3,1,1.7l125.1,72.2v-5.1c0-0.9-0.5-1.7-1.3-2.2l-124.8-72.1V277z"/>
			<path class="st9" d="M189.7,303.8c0,0.7,0.4,1.3,1,1.7l41.8,24v-5.1c0-0.9-0.5-1.7-1.3-2.2l-41.6-23.9V303.8z"/>
		</g>
		<g class="st12">
			<path class="st37" d="M425,383.9L171,237.3c-6.6-2.3-11,3.9-11,7l4.9,189.6l249.3,151.8c3,1.7,9.5,1.1,10.7-5.6V383.9z"/>
			<path class="st26" d="M420,388.8L166.1,242.2c-2.7-1.6-6.1,0.4-6.1,3.5v193.2l253.2,146.2c3,1.7,6.8-0.4,6.8-3.9V388.8z"/>
			
				<linearGradient id="SVGID_3_" gradientUnits="userSpaceOnUse" x1="-1252.5366" y1="249.4737" x2="-1253.9163" y2="396.1696" gradientTransform="matrix(-1 0 0 1 -960.9185 0)">
				<stop  offset="0" style="stop-color:#71D7E2"/>
				<stop  offset="1" style="stop-color:#29ABE2"/>
			</linearGradient>
			<polygon class="st13" points="420,388.8 275.6,438.9 164.4,241.8 			"/>
		</g>
		<g class="st39">
			<path class="st37" d="M452.1,356.8L198.1,210.2c-6.6-2.3-11,3.9-11,7l4.9,189.6l249.3,151.8c3,1.7,9.5,1.1,10.7-5.6V356.8z"/>
			<path class="st26" d="M447.1,361.7L193.2,215.1c-2.7-1.6-6.1,0.4-6.1,3.5v193.2L440.3,558c3,1.7,6.8-0.4,6.8-3.9V361.7z"/>
			
				<linearGradient id="SVGID_4_" gradientUnits="userSpaceOnUse" x1="-1279.6344" y1="222.376" x2="-1281.0139" y2="369.0719" gradientTransform="matrix(-1 0 0 1 -960.9185 0)">
				<stop  offset="0" style="stop-color:#71D7E2"/>
				<stop  offset="1" style="stop-color:#29ABE2"/>
			</linearGradient>
			<polygon class="st14" points="447.1,361.7 302.7,411.8 191.5,214.7 			"/>
		</g>
		<g class="st41">
			<path class="st37" d="M398.4,410.4L144.5,263.8c-6.6-2.3-11,3.9-11,7l4.9,189.6l249.3,151.8c3,1.7,9.5,1.1,10.7-5.6V410.4z"/>
			<path class="st26" d="M393.5,415.4L139.5,268.8c-2.7-1.6-6.1,0.4-6.1,3.5v193.2l253.2,146.2c3,1.7,6.8-0.4,6.8-3.9V415.4z"/>
			
				<linearGradient id="SVGID_5_" gradientUnits="userSpaceOnUse" x1="-1225.9718" y1="276.0386" x2="-1227.3514" y2="422.7344" gradientTransform="matrix(-1 0 0 1 -960.9185 0)">
				<stop  offset="0" style="stop-color:#71D7E2"/>
				<stop  offset="1" style="stop-color:#29ABE2"/>
			</linearGradient>
			<polygon class="st22" points="393.5,415.4 249,465.4 137.9,268.3 			"/>
		</g>
		<g>
			<path class="st37" d="M369.2,439.7L115.3,293c-6.6-2.3-11,3.9-11,7l4.9,189.6l249.3,151.8c3,1.7,9.5,1.1,10.7-5.6V439.7z"/>
			<path class="st26" d="M364.3,444.6L110.3,298c-2.7-1.6-6.1,0.4-6.1,3.5v193.2l253.2,146.2c3,1.7,6.8-0.4,6.8-3.9V444.6z"/>
			
				<linearGradient id="SVGID_6_" gradientUnits="userSpaceOnUse" x1="-1196.7661" y1="305.2444" x2="-1198.1456" y2="451.9402" gradientTransform="matrix(-1 0 0 1 -960.9185 0)">
				<stop  offset="0" style="stop-color:#71D7E2"/>
				<stop  offset="1" style="stop-color:#29ABE2"/>
			</linearGradient>
			<polygon class="st27" points="364.3,444.6 219.8,494.6 108.7,297.5 			"/>
		</g>
		<g>
			
				<linearGradient id="SVGID_7_" gradientUnits="userSpaceOnUse" x1="-1171.6234" y1="89.9172" x2="-1211.6313" y2="286.7379" gradientTransform="matrix(-1 0 0 1 -960.9185 0)">
				<stop  offset="0" style="stop-color:#71D7E2"/>
				<stop  offset="1" style="stop-color:#29ABE2"/>
			</linearGradient>
			<polygon class="st28" points="327.1,416.3 327.1,182.8 159.9,86.2 159.9,319.8 			"/>
			<path class="st9" d="M179.6,211.4c0,0.7,0.4,1.3,1,1.7l125.1,72.2v-5.1c0-0.9-0.5-1.7-1.3-2.2L179.6,206V211.4z"/>
			<path class="st9" d="M188.1,137.2c0,0.7,0.4,1.3,1,1.7l105,60.3v-5.1c0-0.9-0.5-1.7-1.3-2.2l-104.7-60.2V137.2z"/>
			<path class="st9" d="M198.4,157.2c0,0.7,0.4,1.3,1,1.7l80.4,46.3v-5.1c0-0.9-0.5-1.7-1.3-2.2l-80.1-46.2V157.2z"/>
			<path class="st9" d="M179.6,225.6c0,0.7,0.4,1.3,1,1.7l125.1,72.2v-5.1c0-0.9-0.5-1.7-1.3-2.2l-124.8-72.1V225.6z"/>
			<path class="st9" d="M179.6,239.9c0,0.7,0.4,1.3,1,1.7l125.1,72.2v-5.1c0-0.9-0.5-1.7-1.3-2.2l-124.8-72.1V239.9z"/>
			<path class="st9" d="M179.6,254.1c0,0.7,0.4,1.3,1,1.7l125.1,72.2V323c0-0.9-0.5-1.7-1.3-2.2l-124.8-72.1V254.1z"/>
			<path class="st9" d="M179.6,268.4c0,0.7,0.4,1.3,1,1.7l125.1,72.2v-5.1c0-0.9-0.5-1.7-1.3-2.2L179.6,263V268.4z"/>
			<path class="st9" d="M179.6,282.6c0,0.7,0.4,1.3,1,1.7l125.1,72.2v-5.1c0-0.9-0.5-1.7-1.3-2.2l-124.8-72.1V282.6z"/>
			<path class="st9" d="M179.6,309.5c0,0.7,0.4,1.3,1,1.7l41.8,24v-5.1c0-0.9-0.5-1.7-1.3-2.2l-41.6-23.9V309.5z"/>
		</g>
	</g>
</g>
<g id="Layer_4">
</g>
<g id="Layer_3">
</g>
</svg>
